<svg fill="#000000" 
    xmlns="http://www.w3.org/2000/svg" 
    xmlns:xlink="http://www.w3.org/1999/xlink" version="1.1" x="0px" y="0px" viewBox="0 0 100 100" style="enable-background:new 0 0 100 100;" xml:space="preserve">
    <path d="M69.601,10H30.399c-2.954,0-5.357,2.403-5.357,5.357v69.285c0,2.954,2.403,5.357,5.357,5.357h39.201  c2.954,0,5.357-2.403,5.357-5.357V15.357C74.958,12.403,72.554,10,69.601,10z M27.042,21.085h45.915v52.521l-45.915-0.001V21.085z   M30.399,12h39.201c1.851,0,3.357,1.506,3.357,3.357v3.728H27.042v-3.728C27.042,13.506,28.548,12,30.399,12z M69.601,88H30.399  c-1.851,0-3.357-1.506-3.357-3.357v-9.037l45.915,0.001v9.036C72.958,86.494,71.452,88,69.601,88z"></path>
    <path d="M50,77.859c0,0-0.001,0-0.002,0c-1.099,0-2.132,0.428-2.909,1.205c-0.778,0.777-1.206,1.812-1.206,2.911  c0,2.27,1.847,4.116,4.116,4.116c0,0,0.001,0,0.002,0c1.099,0,2.132-0.428,2.909-1.205c0.778-0.777,1.206-1.812,1.206-2.911  C54.117,79.706,52.27,77.859,50,77.859z M51.497,83.473c-0.399,0.399-0.93,0.619-1.495,0.619c0,0-0.001,0-0.001,0  c-1.167,0-2.117-0.949-2.117-2.116c0-0.565,0.22-1.098,0.62-1.497c0.399-0.399,0.93-0.619,1.495-0.619c0,0,0.001,0,0.001,0  c1.167,0,2.117,0.949,2.117,2.116C52.117,82.541,51.896,83.073,51.497,83.473z"></path>
    <path fill="#FD95C9" d="M59.335,60.314L51.23,49.296c1.375-1.86,5.089-7.189,5.089-10.502c0-3.493-2.842-6.335-6.335-6.335  s-6.335,2.842-6.335,6.335c0,3.539,3.734,8.748,5.08,10.513L40.841,60.03c-0.131,0.179-0.194,0.386-0.194,0.591  c0,0.308,0.141,0.611,0.408,0.808c0.178,0.131,0.386,0.194,0.591,0.194c0.307,0,0.61-0.141,0.807-0.407l7.531-10.239L57.724,61.5  c0.196,0.267,0.499,0.407,0.807,0.407c0.206,0,0.413-0.063,0.592-0.194c0.267-0.196,0.408-0.5,0.407-0.808  C59.53,60.7,59.466,60.493,59.335,60.314z M49.983,34.459c2.391,0,4.335,1.944,4.335,4.335c0,2.271-2.674,6.49-4.352,8.837  c-1.674-2.263-4.319-6.362-4.319-8.837C45.648,36.403,47.593,34.459,49.983,34.459z"></path>
</svg>